<?xml version="1.0" encoding="UTF-8" standalone="no"?>
<!-- Created with Inkscape (http://www.inkscape.org/) -->

<svg
   xmlns:dc="http://purl.org/dc/elements/1.1/"
   xmlns:cc="http://creativecommons.org/ns#"
   xmlns:rdf="http://www.w3.org/1999/02/22-rdf-syntax-ns#"
   xmlns:svg="http://www.w3.org/2000/svg"
   xmlns="http://www.w3.org/2000/svg"
   xmlns:sodipodi="http://sodipodi.sourceforge.net/DTD/sodipodi-0.dtd"
   xmlns:inkscape="http://www.inkscape.org/namespaces/inkscape"
   width="744.09448819"
   height="1052.3622047"
   id="svg2"
   version="1.1"
   inkscape:version="0.48.4 r9939"
   sodipodi:docname="00_ Cover.svg">
  <defs
     id="defs4" />
  <sodipodi:namedview
     id="base"
     pagecolor="#ffffff"
     bordercolor="#666666"
     borderopacity="1.0"
     inkscape:pageopacity="0.0"
     inkscape:pageshadow="2"
     inkscape:zoom="0.7"
     inkscape:cx="227.24689"
     inkscape:cy="433.10949"
     inkscape:document-units="px"
     inkscape:current-layer="layer3"
     showgrid="false"
     inkscape:window-width="1680"
     inkscape:window-height="1013"
     inkscape:window-x="0"
     inkscape:window-y="0"
     inkscape:window-maximized="1"
     showguides="true"
     inkscape:guide-bbox="true">
    <sodipodi:guide
       orientation="1,0"
       position="-411.13209,493.96459"
       id="guide3954" />
  </sodipodi:namedview>
  <metadata
     id="metadata7">
    <rdf:RDF>
      <cc:Work
         rdf:about="">
        <dc:format>image/svg+xml</dc:format>
        <dc:type
           rdf:resource="http://purl.org/dc/dcmitype/StillImage" />
        <dc:title />
      </cc:Work>
    </rdf:RDF>
  </metadata>
  <g
     inkscape:label="Umeus"
     inkscape:groupmode="layer"
     id="layer1"
     style="display:inline"
     sodipodi:insensitive="true">
    <rect
       style="fill:#ffffff;fill-opacity:1;stroke:none;display:inline"
       id="rect3045"
       width="750"
       height="1058.5714"
       x="0"
       y="-0.49496025" />
    <path
       style="fill:#36c536;fill-opacity:1;stroke:#000000;stroke-width:1px;stroke-linecap:butt;stroke-linejoin:miter;stroke-opacity:1"
       d="M 317.85714,495.21933 185,198.07647 l 141.42857,290 L 200.71428,78.076468 339.28571,488.07647 255,62.362182 352.14285,489.50504 313.57142,63.790754 365,502.36219 515,106.6479 383.57142,525.21933 632.14285,142.36219 393.57142,545.21933 727.85714,440.93362 395,563.79076 l 334.28571,90 L 393.57142,582.36219 677.85714,940.93362 375,600.93362 560.71428,948.07647 356.42857,605.21933 303.57142,1000.9336 342.14285,606.6479 16.428571,960.93362 326.42857,592.36219 30.714285,740.93362 309.28571,572.36219 26.428571,613.79076 l 284.285709,-60 L 25,528.07647 309.28571,542.36219 26.428571,435.21933 307.85714,520.93362 59.285714,346.6479 313.57142,509.50504 85,300.93362 z"
       id="path2985"
       inkscape:connector-curvature="0" />
    <path
       sodipodi:type="arc"
       style="fill:#ffffff;fill-opacity:1;stroke:none"
       id="path3769"
       sodipodi:cx="352.14285"
       sodipodi:cy="515.93359"
       sodipodi:rx="13.571428"
       sodipodi:ry="10.714286"
       d="m 365.71428,515.93359 a 13.571428,10.714286 0 1 1 -27.14286,0 13.571428,10.714286 0 1 1 27.14286,0 z"
       transform="translate(12.857143,5.7142857)" />
    <path
       sodipodi:type="arc"
       style="fill:#ffffff;fill-opacity:1;stroke:none"
       id="path3771"
       sodipodi:cx="314.28571"
       sodipodi:cy="517.36218"
       sodipodi:rx="10"
       sodipodi:ry="9.2857141"
       d="m 324.28571,517.36218 a 10,9.2857141 0 1 1 -20,0 10,9.2857141 0 1 1 20,0 z"
       transform="translate(12.857143,5.7142857)" />
    <path
       style="fill:none;stroke:#000000;stroke-width:1px;stroke-linecap:butt;stroke-linejoin:miter;stroke-opacity:1"
       d="m 380,550.93362 c -6.80843,8.28794 -20.82402,70.97494 -42.85715,20"
       id="path3773"
       inkscape:connector-curvature="0"
       sodipodi:nodetypes="cc" />
    <path
       sodipodi:type="arc"
       style="fill:#000000;fill-opacity:1;stroke:none"
       id="path3777"
       sodipodi:cx="351.78571"
       sodipodi:cy="515.57648"
       sodipodi:rx="6.0714288"
       sodipodi:ry="3.9285715"
       d="m 357.85713,515.57648 a 6.0714288,3.9285715 0 1 1 -12.14285,0 6.0714288,3.9285715 0 1 1 12.14285,0 z"
       transform="translate(12.857143,5.7142857)" />
    <path
       sodipodi:type="arc"
       style="fill:#000000;fill-opacity:1;stroke:none"
       id="path3779"
       sodipodi:cx="313.57144"
       sodipodi:cy="518.07648"
       sodipodi:rx="3.5714285"
       sodipodi:ry="3.5714285"
       d="m 317.14287,518.07648 a 3.5714285,3.5714285 0 1 1 -7.14286,0 3.5714285,3.5714285 0 1 1 7.14286,0 z"
       transform="translate(12.857143,5.7142857)" />
    <text
       xml:space="preserve"
       style="font-size:144px;font-style:normal;font-weight:normal;text-align:center;line-height:125%;letter-spacing:0px;word-spacing:0px;text-anchor:middle;fill:#000000;fill-opacity:1;stroke:none;font-family:Sans"
       x="-475.71429"
       y="585.21936"
       id="text3016"
       sodipodi:linespacing="125%"><tspan
         sodipodi:role="line"
         id="tspan3018"
         x="-475.71429"
         y="585.21936" /></text>
  </g>
  <g
     inkscape:groupmode="layer"
     id="layer2"
     inkscape:label="Title"
     style="display:inline"
     sodipodi:insensitive="true">
    <path
       style="fill:#ffffff;stroke:#000000;stroke-width:2.5;stroke-linecap:butt;stroke-linejoin:miter;stroke-miterlimit:4.0999999;stroke-opacity:1;stroke-dasharray:none;display:inline"
       d="M 21.411053,804.28373 20.153869,642.21002 70.441208,753.15972 83.641635,631.33258 76.727128,816.24895 30.211337,687.89521 z"
       id="path3755"
       inkscape:connector-curvature="0" />
    <path
       style="fill:#ffffff;stroke:#000000;stroke-width:2.5;stroke-linecap:butt;stroke-linejoin:miter;stroke-miterlimit:4.0999999;stroke-opacity:1;stroke-dasharray:none;display:inline"
       d="m 103.47941,693.55506 -11.103061,116.18568 107.614231,-6.0096 -93.09485,-3.3387 5.12449,-44.73815 75.15915,0 -71.74282,-11.35147 1.70816,-38.06082 64.05609,-4.67413 z"
       id="path3757"
       inkscape:connector-curvature="0" />
    <path
       style="fill:#ffffff;stroke:#000000;stroke-width:2.5;stroke-linecap:butt;stroke-linejoin:miter;stroke-miterlimit:4.0999999;stroke-opacity:1;stroke-dasharray:none;display:inline"
       d="m 190.38862,675.02615 37.57731,76.1353 -41.26136,88.65068 49.36628,-78.22118 41.99817,82.39298 -33.89327,-92.82248 48.62947,-74.04941 -55.26076,56.31927 z"
       id="path3759"
       inkscape:connector-curvature="0" />
    <path
       style="fill:#ffffff;stroke:#000000;stroke-width:2.5;stroke-linecap:butt;stroke-linejoin:miter;stroke-miterlimit:4.0999999;stroke-opacity:1;stroke-dasharray:none;display:inline"
       d="m 319.7549,678.07647 c -12.92492,49.86444 -19.63217,112.16423 -42.85714,141.42856 l 118.57142,-2.8571 5.71429,-132.85717 -25.71428,112.8571 -64.28572,-2.85713 z"
       id="path3761"
       inkscape:connector-curvature="0"
       sodipodi:nodetypes="ccccccc" />
    <path
       style="fill:#ffffff;stroke:#000000;stroke-width:2.5;stroke-linecap:butt;stroke-linejoin:miter;stroke-miterlimit:4.0999999;stroke-opacity:1;stroke-dasharray:none;display:inline"
       d="m 496.30601,728.22004 -56.96954,-42.75561 -15.8876,71.32704 59.91334,43.01562 -84.19906,19.84154 110,-10 -70.33176,-58.6581 8.39811,-40.49021 z"
       id="path3763"
       inkscape:connector-curvature="0"
       sodipodi:nodetypes="ccccccccc" />
    <path
       style="fill:#ffffff;stroke:#000000;stroke-width:2.5;stroke-linecap:butt;stroke-linejoin:miter;stroke-miterlimit:4.0999999;stroke-opacity:1;stroke-dasharray:none;display:inline"
       d="m 524.87745,675.3629 -8.57143,81.42857 14.28571,62.85712 4.28572,-64.28569 z"
       id="path3765"
       inkscape:connector-curvature="0" />
    <path
       style="fill:#ffffff;stroke:#000000;stroke-width:2.5;stroke-linecap:butt;stroke-linejoin:miter;stroke-miterlimit:4.0999999;stroke-opacity:1;stroke-dasharray:none;display:inline"
       d="m 629.16316,731.07719 -56.86802,-36.20449 -14.56055,67.63307 56.88288,35.54102 -59.74003,18.74466 85.36765,-12.8571 -66.79622,-47.14287 7.92278,-42.00544 z"
       id="path3767"
       inkscape:connector-curvature="0"
       sodipodi:nodetypes="ccccccccc" />
    <path
       style="fill:#ffffff;stroke:#000000;stroke-width:2.5;stroke-linecap:butt;stroke-linejoin:miter;stroke-miterlimit:4.0999999;stroke-opacity:1;stroke-dasharray:none;display:inline"
       d="m 646.92378,832.32384 18.27816,-149.20031 25.58942,91.81558 36.4839,-88.38754 3.72802,155.33646 -16.52273,-87.98999 -25.51702,57.38471 -18.27813,-63.12318 z"
       id="path3775"
       inkscape:connector-curvature="0"
       sodipodi:nodetypes="ccccccccc" />
    <path
       style="fill:#ffffff;stroke:#000000;stroke-width:2.5;stroke-linecap:butt;stroke-linejoin:miter;stroke-miterlimit:4.0999999;stroke-opacity:1;stroke-dasharray:none;display:inline"
       d="m 378.57143,33.790754 -1.42857,78.571426 60,1.42857 L 390,98.076468 l 4.28571,-17.142857 47.14286,-2.857143 -45.71428,-17.142857 0,-17.142857 42.85714,-10 z"
       id="path3004"
       inkscape:connector-curvature="0" />
    <path
       style="fill:#ffffff;stroke:#000000;stroke-width:2.5;stroke-linecap:butt;stroke-linejoin:miter;stroke-miterlimit:4.0999999;stroke-opacity:1;stroke-dasharray:none;display:inline"
       d="m 60.008929,142.78448 -42.875,121.4375 33.542987,-42.02031 22.657043,1.01016 25.237466,43.8539 z m 1.40625,41.4375 7.739055,25.44686 -17.739055,-1.16561 z"
       id="path3006"
       inkscape:connector-curvature="0"
       sodipodi:nodetypes="cccccccccc" />
    <path
       style="fill:#ffffff;stroke:#000000;stroke-width:2.5;stroke-linecap:butt;stroke-linejoin:miter;stroke-miterlimit:4.0999999;stroke-opacity:1;stroke-dasharray:none;display:inline"
       d="m 140.66798,134.02189 -31.4375,7.15625 -1.4375,127.15625 18.40704,-60.42735 18.1664,-4.81012 32.02031,68.08122 -20,-82.84375 8.5625,-24.3125 z m -17.15625,24.3125 24.28125,10 -22.84375,20 z"
       id="path3020"
       inkscape:connector-curvature="0"
       sodipodi:nodetypes="ccccccccccccc" />
    <path
       style="fill:#ffffff;stroke:#000000;stroke-width:2.5;stroke-linecap:butt;stroke-linejoin:miter;stroke-miterlimit:4.0999999;stroke-opacity:1;stroke-dasharray:none;display:inline"
       d="m 226.44066,136.8117 -46.54219,3.78363 2.84375,127.125 15.37658,-55.71875 26.5422,-6.55854 32.39372,67.99604 -19.09137,-80.05393 17.89451,-36.1461 z m -23.8539,20.08519 35.87421,6.54219 -38.74921,27.92576 z"
       id="path3024"
       inkscape:connector-curvature="0"
       sodipodi:nodetypes="ccccccccccccc" />
    <path
       style="fill:#ffffff;stroke:#000000;stroke-width:2.5;stroke-linecap:butt;stroke-linejoin:miter;stroke-miterlimit:4.0999999;stroke-opacity:1;stroke-dasharray:none;display:inline"
       d="m 422.48078,163.16928 -38.57143,-35.71428 -35.71429,47.14285 1.42857,58.57143 38.57143,40 28.2248,-47.14285 4.63234,51.42857 11.15373,-66.96954 -29.72515,1.25525 -18.57143,34.28572 -15.71429,-22.85715 -2.85714,-41.42857 24.28571,-30 z"
       id="path3032"
       inkscape:connector-curvature="0"
       sodipodi:nodetypes="cccccccccccccc" />
    <path
       style="fill:#ffffff;stroke:#000000;stroke-width:2.5;stroke-linecap:butt;stroke-linejoin:miter;stroke-miterlimit:4.0999999;stroke-opacity:1;stroke-dasharray:none;display:inline"
       d="m 462.04155,137.46335 -31.35232,121.25079 25.6875,-44.28125 20.66799,-1.86485 25.05076,37.5836 z m 2.26094,36.11485 11.59296,28.32186 -19.1453,-0.34217 z"
       id="path3034"
       inkscape:connector-curvature="0"
       sodipodi:nodetypes="cccccccccc" />
    <path
       style="fill:#ffffff;stroke:#000000;stroke-width:2.5;stroke-linecap:butt;stroke-linejoin:miter;stroke-miterlimit:4.0999999;stroke-opacity:1;stroke-dasharray:none;display:inline"
       d="m 508.41042,135.26137 -1.42857,127.14286 11.74546,-85.54097 37.59102,73.69397 9.23495,-126.72443 -17.56128,83.37708 z"
       id="path3038"
       inkscape:connector-curvature="0"
       sodipodi:nodetypes="ccccccc" />
    <path
       style="fill:#ffffff;stroke:#000000;stroke-width:2.5;stroke-linecap:butt;stroke-linejoin:miter;stroke-miterlimit:4.0999999;stroke-opacity:1;stroke-dasharray:none;display:inline"
       d="m 643.8796,159.37378 -34.28571,-42.85715 -30,38.57143 -5.71429,71.42857 31.42858,35.71429 38.57142,-35.71429 -32.85714,12.85715 -21.42857,-21.42857 1.42857,-54.28572 21.42857,-27.14286 z"
       id="path3040"
       inkscape:connector-curvature="0" />
    <path
       style="fill:#ffffff;stroke:#000000;stroke-width:2.5;stroke-linecap:butt;stroke-linejoin:miter;stroke-miterlimit:4.0999999;stroke-opacity:1;stroke-dasharray:none;display:inline"
       d="m 652.62435,122.0576 0,138.57143 52.85714,-2.85714 -34.28571,-12.92893 -2.85714,-40.02974 35.71428,-9.89847 -36.72443,-8.88832 1.42857,-49.61133 33.86729,-14.3575 z"
       id="path3042"
       inkscape:connector-curvature="0"
       sodipodi:nodetypes="cccccccccc" />
    <path
       style="fill:#ffffff;stroke:#000000;stroke-width:2.5;stroke-linecap:butt;stroke-linejoin:miter;stroke-miterlimit:4.0999999;stroke-opacity:1;stroke-dasharray:none;display:inline"
       d="m 285,281.71969 -6.42857,57.85714 12.14285,-23.21429 33.57143,-6.78571 -31.78571,-5 1.42857,-12.5 32.5,-2.85714 z"
       id="path3048"
       inkscape:connector-curvature="0"
       sodipodi:nodetypes="cccccccc" />
    <path
       style="fill:#ffffff;stroke:#000000;stroke-width:2.5;stroke-linecap:butt;stroke-linejoin:miter;stroke-miterlimit:4.0999999;stroke-opacity:1;stroke-dasharray:none;display:inline"
       d="m 382.85714,285.29111 50,2.85714 -23.57143,9.64285 -10.71429,40.35715 1e-5,-41.07143 z"
       id="path3052"
       inkscape:connector-curvature="0"
       sodipodi:nodetypes="cccccc" />
    <path
       style="fill:#ffffff;stroke:#000000;stroke-width:2.5;stroke-linecap:butt;stroke-linejoin:miter;stroke-miterlimit:4.0999999;stroke-opacity:1;stroke-dasharray:none;display:inline"
       d="m 440.2451,288.04673 -7.5,52.85714 12.14286,-23.21429 19.28571,0.35715 4.64286,26.42856 11.42857,-59.28571 -14.99999,23.21428 -20,1.07144 z"
       id="path3054"
       inkscape:connector-curvature="0"
       sodipodi:nodetypes="ccccccccc" />
    <path
       style="fill:#ffffff;stroke:#000000;stroke-width:2.5;stroke-linecap:butt;stroke-linejoin:miter;stroke-miterlimit:4.0999999;stroke-opacity:1;stroke-dasharray:none;display:inline"
       d="m 491.35304,287.93596 -6.33076,55.37564 40.77118,-5.76366 -29.26525,-6.9224 1.07143,-10.90035 31.4502,-4.79101 -30.69383,-3.76895 1.42857,-12.07055 30.2457,-2.79629 z"
       id="path3056"
       inkscape:connector-curvature="0"
       sodipodi:nodetypes="cccccccccc" />
    <path
       style="fill:#ffffff;stroke:#000000;stroke-width:2.5;stroke-linecap:butt;stroke-linejoin:miter;stroke-miterlimit:4.0999999;stroke-opacity:1;stroke-dasharray:none;display:inline"
       d="m 63.617726,358.40619 -35.71875,1.40625 -3.006661,120 16.20003,-55.05076 17.319163,-10.10153 38.08122,60.87104 -25.664818,-66.7289 11.352318,-28.98985 z m -21.4375,20 28.166405,9.73556 -28.166405,21.67069 z"
       id="path3058"
       inkscape:connector-curvature="0"
       sodipodi:nodetypes="ccccccccccccc" />
    <path
       style="fill:#ffffff;stroke:#000000;stroke-width:2.5;stroke-linecap:butt;stroke-linejoin:miter;stroke-miterlimit:4.0999999;stroke-opacity:1;stroke-dasharray:none;display:inline"
       d="m 97.399858,361.26241 6.467732,110.11978 50.44828,-10.01089 -37.00775,-7.39487 -0.44337,-30.96325 29.68984,-8.83607 -30.25663,-4.86949 -3.03045,-37.86965 38.46127,-8.74544 z"
       id="path3062"
       inkscape:connector-curvature="0"
       sodipodi:nodetypes="cccccccccc" />
    <path
       style="fill:#ffffff;stroke:#000000;stroke-width:2.5;stroke-linecap:butt;stroke-linejoin:miter;stroke-miterlimit:4.0999999;stroke-opacity:1;stroke-dasharray:none;display:inline"
       d="m 159.97027,362.57755 21.42857,110 42.85714,-117.14285 -38.57143,75.71428 z"
       id="path3064"
       inkscape:connector-curvature="0" />
    <path
       style="fill:#ffffff;stroke:#000000;stroke-width:2.5;stroke-linecap:butt;stroke-linejoin:miter;stroke-miterlimit:4.0999999;stroke-opacity:1;stroke-dasharray:none;display:inline"
       d="m 276.05156,355.69259 -4.8553,113.29202 39.81341,-7.17038 -28.2389,-5.99792 z"
       id="path3066"
       inkscape:connector-curvature="0"
       sodipodi:nodetypes="ccccc" />
    <path
       style="fill:#ffffff;stroke:#000000;stroke-width:2.5;stroke-linecap:butt;stroke-linejoin:miter;stroke-miterlimit:4.0999999;stroke-opacity:1;stroke-dasharray:none;display:inline"
       d="m 315.66985,363.73031 0,95.67418 50.92572,2.81396 -3.84345,-101.30209 -5.76517,75.97656 -27.86503,4.22092 z"
       id="path3068"
       inkscape:connector-curvature="0" />
    <path
       style="fill:#ffffff;stroke:#000000;stroke-width:2.5;stroke-linecap:butt;stroke-linejoin:miter;stroke-miterlimit:4.0999999;stroke-opacity:1;stroke-dasharray:none;display:inline"
       d="m 363.63451,358.95537 72.85714,2.85714 -32.02031,9.74002 -16.55112,91.68855 3.36223,-91.5301 z"
       id="path3070"
       inkscape:connector-curvature="0"
       sodipodi:nodetypes="cccccc" />
    <path
       style="fill:#ffffff;stroke:#000000;stroke-width:2.5;stroke-linecap:butt;stroke-linejoin:miter;stroke-miterlimit:4.0999999;stroke-opacity:1;stroke-dasharray:none;display:inline"
       d="m 441.51267,363.57283 -13.93908,44.70414 6.79622,52.43872 11.42857,-51.42857 z"
       id="path3072"
       inkscape:connector-curvature="0"
       sodipodi:nodetypes="ccccc" />
    <path
       style="fill:#ffffff;stroke:#000000;stroke-width:2.5;stroke-linecap:butt;stroke-linejoin:miter;stroke-miterlimit:4.0999999;stroke-opacity:1;stroke-dasharray:none;display:inline"
       d="m 519.24727,362.96624 -7.14286,98.57143 17.14286,-60 28.57142,57.14286 4.28572,-94.28572 -17.14286,47.14286 z"
       id="path3078"
       inkscape:connector-curvature="0" />
    <path
       style="fill:#ffffff;stroke:#000000;stroke-width:2.5;stroke-linecap:butt;stroke-linejoin:miter;stroke-miterlimit:4.0999999;stroke-opacity:1;stroke-dasharray:none;display:inline"
       d="m 587.1299,363.37515 -24.7086,103.29489 17.39689,-35.12849 16.35549,-0.76951 22.39372,42.60311 z m 1.4375,37.15625 7.125,21.4375 -14.28125,0 z"
       id="path3080"
       inkscape:connector-curvature="0"
       sodipodi:nodetypes="cccccccccc" />
    <path
       style="fill:#ffffff;stroke:#000000;stroke-width:2.5;stroke-linecap:butt;stroke-linejoin:miter;stroke-miterlimit:4.0999999;stroke-opacity:1;stroke-dasharray:none;display:inline"
       d="m 620.31582,368.66656 1.11913,102.71209 12.18322,-40.52887 14.78632,-5.87421 14.78633,49.40974 -6.80663,-59.38594 6.80663,-27.73906 -14.28125,-17.15625 z m 10,18.59375 24.3125,10 -22.875,14.28125 z"
       id="path3084"
       inkscape:connector-curvature="0"
       sodipodi:nodetypes="ccccccccccccc" />
    <path
       style="fill:#ffffff;stroke:#000000;stroke-width:2.5;stroke-linecap:butt;stroke-linejoin:miter;stroke-miterlimit:4.0999999;stroke-opacity:1;stroke-dasharray:none;display:inline"
       d="m 278.3053,613.40208 50,2.85714 -24.28572,8.57143 -10,41.42857 0.71429,-41.42857 z"
       id="path3052-5"
       inkscape:connector-curvature="0"
       sodipodi:nodetypes="cccccc" />
    <path
       style="fill:#ffffff;stroke:#000000;stroke-width:2.5;stroke-linecap:butt;stroke-linejoin:miter;stroke-miterlimit:4.0999999;stroke-opacity:1;stroke-dasharray:none;display:inline"
       d="m 339.97897,616.50433 -8.57143,58.21428 12.85715,-25.35714 21.42857,0 2.85714,34.28571 11.42857,-70 -13.21428,26.42857 -22.14286,0.71429 z"
       id="path3054-8"
       inkscape:connector-curvature="0"
       sodipodi:nodetypes="ccccccccc" />
    <path
       style="fill:#ffffff;stroke:#000000;stroke-width:2.5;stroke-linecap:butt;stroke-linejoin:miter;stroke-miterlimit:4.0999999;stroke-opacity:1;stroke-dasharray:none;display:inline"
       d="m 395.34668,616.1887 -6.04048,58.69325 36.45383,-3.64384 -25.71143,-5.72417 0.71428,-16.15373 25.48787,-3.43154 -23.92573,-4.57537 0,-14.86999 25.91954,-4.36308 z"
       id="path3056-5"
       inkscape:connector-curvature="0"
       sodipodi:nodetypes="cccccccccc" />
    <path
       style="fill:#ffffff;stroke:#000000;stroke-width:2.5;stroke-linecap:butt;stroke-linejoin:miter;stroke-miterlimit:4.0999999;stroke-opacity:1;stroke-dasharray:none;display:inline"
       d="M 49.712842,967.65805 76.8557,830.51519 l 22.857142,88.57143 51.428568,-91.42857 -10,172.85715 -8.57143,-115.7143 -38.571423,67.14286 -15.714286,-72.85714 z"
       id="path3061"
       inkscape:connector-curvature="0" />
    <path
       style="fill:#ffffff;stroke:#000000;stroke-width:2.5;stroke-linecap:butt;stroke-linejoin:miter;stroke-miterlimit:4.0999999;stroke-opacity:1;stroke-dasharray:none;display:inline"
       d="m 197.1726,838.62896 -51.4375,140 32.61056,-51.40625 21.67814,0.3961 19.99255,49.6039 z m -3.19337,40.08518 4.94924,36.64372 -17.47462,0.42735 z"
       id="path3063"
       inkscape:connector-curvature="0"
       sodipodi:nodetypes="cccccccccc" />
    <path
       style="fill:#ffffff;stroke:#000000;stroke-width:2.5;stroke-linecap:butt;stroke-linejoin:miter;stroke-miterlimit:4.0999999;stroke-opacity:1;stroke-dasharray:none;display:inline"
       d="m 230,846.79147 -4.28571,131.42857 17.14285,-97.14285 41.42857,90 4.28572,-127.14286 -14.28572,78.57143 z"
       id="path3067"
       inkscape:connector-curvature="0" />
    <path
       style="fill:#ffffff;stroke:#000000;stroke-width:2.5;stroke-linecap:butt;stroke-linejoin:miter;stroke-miterlimit:4.0999999;stroke-opacity:1;stroke-dasharray:none;display:inline"
       d="m 318.05149,843.5877 -9.89847,60.49021 7.04132,62.36694 10,-61.42857 z"
       id="path3069"
       inkscape:connector-curvature="0"
       sodipodi:nodetypes="ccccc" />
    <path
       style="fill:#ffffff;stroke:#000000;stroke-width:2.5;stroke-linecap:butt;stroke-linejoin:miter;stroke-miterlimit:4.0999999;stroke-opacity:1;stroke-dasharray:none;display:inline"
       d="m 343.98114,852.33245 -1.42857,120 20,-58.57143 44.28572,-4.28571 -45.6425,-10.40355 0.25997,-31.5301 49.66824,-8.06635 z"
       id="path3071"
       inkscape:connector-curvature="0"
       sodipodi:nodetypes="cccccccc" />
    <path
       style="fill:#ffffff;stroke:#000000;stroke-width:2.5;stroke-linecap:butt;stroke-linejoin:miter;stroke-miterlimit:4.0999999;stroke-opacity:1;stroke-dasharray:none;display:inline"
       d="m 421.54241,851.98582 1.42857,107.14285 70.9235,-8.32632 -54.79079,-8.4699 -0.41842,-38.91806 51.76033,-9.07651 -51.42857,-7.14286 -0.33176,-22.35206 60.92349,-3.01559 z"
       id="path3073"
       inkscape:connector-curvature="0"
       sodipodi:nodetypes="cccccccccc" />
    <path
       style="fill:#ffffff;stroke:#000000;stroke-width:2.5;stroke-linecap:butt;stroke-linejoin:miter;stroke-miterlimit:4.0999999;stroke-opacity:1;stroke-dasharray:none;display:inline"
       d="m 572.34952,882.99597 -50.49021,-27.22952 -15.98913,58.61348 61.93365,32.4536 -58.90319,15.22407 85.71429,-9.92821 -75.71429,-42.92893 8.83141,-38.15301 z"
       id="path3075"
       inkscape:connector-curvature="0"
       sodipodi:nodetypes="ccccccccc" />
    <path
       style="fill:#ffffff;stroke:#000000;stroke-width:2.5;stroke-linecap:butt;stroke-linejoin:miter;stroke-miterlimit:4.0999999;stroke-opacity:1;stroke-dasharray:none;display:inline"
       d="m 578.90064,858.78205 72.85714,4.28571 -32.9438,10.41842 -12.77048,95.29587 -0.0718,-96.39267 z"
       id="path3077"
       inkscape:connector-curvature="0"
       sodipodi:nodetypes="cccccc" />
    <path
       style="fill:#ffffff;stroke:#000000;stroke-width:2.5;stroke-linecap:butt;stroke-linejoin:miter;stroke-miterlimit:4.0999999;stroke-opacity:1;stroke-dasharray:none;display:inline"
       d="m 673.85135,857.41576 -30.40355,21.52268 -5.6875,64.28125 27.125,35.71875 35.71875,-30 3.72224,-63.03046 z m -0.40355,16.62737 18.74921,19.15276 -3.03046,48.5863 -22.68829,19.33201 -17.31171,-22.44765 6.22383,-51.74842 z"
       id="path3079"
       inkscape:connector-curvature="0"
       sodipodi:nodetypes="cccccccccccccc" />
    <path
       style="fill:#ffffff;stroke:#000000;stroke-width:2.5;stroke-linecap:butt;stroke-linejoin:miter;stroke-miterlimit:4.0999999;stroke-opacity:1;stroke-dasharray:none;display:inline"
       d="m 242.10549,359.9486 -24.3125,31.40625 -1.40625,47.15625 22.84375,34.28125 27.15625,-34.28125 -2.875,-50 z m -1.28204,21.25079 14.12579,17.31171 1.4375,38.5625 -16.06837,20.26444 -15.36913,-20.26444 1.51523,-39.75936 z"
       id="path3085"
       inkscape:connector-curvature="0"
       sodipodi:nodetypes="cccccccccccccc" />
    <path
       style="fill:#ffffff;stroke:#000000;stroke-width:2.5;stroke-linecap:butt;stroke-linejoin:miter;stroke-miterlimit:4.0999999;stroke-opacity:1;stroke-dasharray:none;display:inline"
       d="m 482.09548,360.5314 -25.71875,30 -3.34883,47.84058 26.37929,24.84771 26.96954,-32.68829 1.4375,-45.71875 z m 1.35977,16.62738 14.35898,17.65387 1.4375,31.4375 -20,21.77967 -15.71875,-18.93592 1.01015,-32.78982 z"
       id="path3089"
       inkscape:connector-curvature="0"
       sodipodi:nodetypes="cccccccccccccc" />
    <path
       style="fill:#ffffff;stroke:#000000;stroke-width:2.5;stroke-linecap:butt;stroke-linejoin:miter;stroke-miterlimit:4.0999999;stroke-opacity:1;stroke-dasharray:none;display:inline"
       d="m 303.06804,135.78521 -37.125,34.28125 -5.71875,62.84375 34.28125,28.59375 40,-28.59375 4.28125,-65.6875 -35.71875,-31.4375 z m 0,24.28125 24.28125,20 -8.5625,45.71875 -25.71875,18.5625 -20,-18.5625 2.875,-41.4375 27.125,-24.28125 z"
       id="path3093"
       inkscape:connector-curvature="0" />
    <path
       style="fill:#ffffff;stroke:#000000;stroke-width:2.5;stroke-linecap:butt;stroke-linejoin:miter;stroke-miterlimit:4.0999999;stroke-opacity:1;stroke-dasharray:none;display:inline"
       d="m 661.23784,362.27298 17.14286,51.42858 4.28571,60 14.28572,-60 31.42857,-50 -38.57143,37.14285 z"
       id="path3088"
       inkscape:connector-curvature="0" />
    <path
       style="fill:#ffffff;stroke:#000000;stroke-width:2.5;stroke-linecap:butt;stroke-linejoin:miter;stroke-miterlimit:4.0999999;stroke-opacity:1;stroke-dasharray:none"
       d="M 235.71429,35.219325 310,36.647897 280,50.933611 264.28571,122.36218 258.57143,53.790754 z"
       id="path3154"
       inkscape:connector-curvature="0" />
    <path
       style="fill:#ffffff;stroke:#000000;stroke-width:2.5;stroke-linecap:butt;stroke-linejoin:miter;stroke-miterlimit:4.0999999;stroke-opacity:1;stroke-dasharray:none"
       d="M 314.28571,38.076468 310,133.79075 l 17.14286,-41.428567 21.42857,-2.857143 7.14286,41.42857 5.71428,-92.857142 -14.28571,38.571429 -22.85715,-1.428572 z"
       id="path3156"
       inkscape:connector-curvature="0" />
    <path
       style="fill:#ffffff;stroke:#000000;stroke-width:2.5;stroke-linecap:butt;stroke-linejoin:miter;stroke-miterlimit:4.0999999;stroke-opacity:1;stroke-dasharray:none"
       d="m 248.5625,283.86643 -21.40625,15.00446 -1.4375,24.27679 17.84375,17.84375 20,-15.6875 1.07143,-26.08482 z m -0.36161,11.41964 9.66965,9.64286 -0.71429,18.21875 -12.16964,8.20536 -12.83036,-11.76786 1.41071,-14.65179 z"
       id="path3162"
       inkscape:connector-curvature="0"
       sodipodi:nodetypes="cccccccccccccc" />
  </g>
  <g
     inkscape:groupmode="layer"
     id="layer3"
     inkscape:label="Author"
     style="display:inline"
     sodipodi:insensitive="true">
    <text
       xml:space="preserve"
       style="font-size:36px;font-style:normal;font-weight:normal;text-align:center;line-height:125%;letter-spacing:0px;word-spacing:0px;text-anchor:middle;fill:#000000;fill-opacity:1;stroke:none;display:inline;font-family:Sans"
       x="496.95416"
       y="951.7132"
       id="text3104"
       sodipodi:linespacing="125%"
       transform="scale(0.94041581,1.0633594)"><tspan
         sodipodi:role="line"
         id="tspan3106"
         x="496.95416"
         y="951.7132">Matt Dodson</tspan></text>
  </g>
</svg>
